<svg width="66" height="61" viewBox="0 0 66 61" fill="none" xmlns="http://www.w3.org/2000/svg">
<path d="M63 30.5C63 28.5109 62.2098 26.6032 60.8033 25.1967C59.3968 23.7902 57.4891 23 55.5 23H43C43 25.6522 41.9464 28.1957 40.0711 30.0711C38.1957 31.9464 35.6522 33 33 33C30.3478 33 27.8043 31.9464 25.9289 30.0711C24.0536 28.1957 23 25.6522 23 23H10.5C8.51088 23 6.60322 23.7902 5.1967 25.1967C3.79018 26.6032 3 28.5109 3 30.5M63 30.5V50.5C63 52.4891 62.2098 54.3968 60.8033 55.8033C59.3968 57.2098 57.4891 58 55.5 58H10.5C8.51088 58 6.60322 57.2098 5.1967 55.8033C3.79018 54.3968 3 52.4891 3 50.5V30.5M63 30.5V20.5M3 30.5V20.5M63 20.5C63 18.5109 62.2098 16.6032 60.8033 15.1967C59.3968 13.7902 57.4891 13 55.5 13H10.5C8.51088 13 6.60322 13.7902 5.1967 15.1967C3.79018 16.6032 3 18.5109 3 20.5M63 20.5V10.5C63 8.51088 62.2098 6.60322 60.8033 5.1967C59.3968 3.79018 57.4891 3 55.5 3H10.5C8.51088 3 6.60322 3.79018 5.1967 5.1967C3.79018 6.60322 3 8.51088 3 10.5V20.5" stroke="url(#paint0_linear_401_66)" stroke-width="4.5" stroke-linecap="round" stroke-linejoin="round"/>
<defs>
<linearGradient id="paint0_linear_401_66" x1="33" y1="3" x2="33" y2="58" gradientUnits="userSpaceOnUse">
<stop stop-color="#FF9900"/>
<stop offset="0.505208" stop-color="#C059FF"/>
<stop offset="1" stop-color="#00D1FF"/>
</linearGradient>
</defs>
</svg>
