<svg width="62" height="62" viewBox="0 0 62 62" fill="none" xmlns="http://www.w3.org/2000/svg">
<path fill-rule="evenodd" clip-rule="evenodd" d="M31 0C48.1227 0 62 13.8773 62 31C62 48.1227 48.1227 62 31 62C13.8773 62 0 48.1227 0 31C0 13.8773 13.8773 0 31 0Z" fill="url(#paint0_linear_401_71)"/>
<path d="M19.7022 23.9403C25.9385 17.8493 36.0619 17.8493 42.2982 23.9403L43.049 24.679C43.3639 24.9817 43.3639 25.4782 43.049 25.781L40.4818 28.2876C40.3244 28.445 40.0701 28.445 39.9127 28.2876L38.8834 27.2825C34.524 23.0321 27.4764 23.0321 23.117 27.2825L22.015 28.3603C21.8576 28.5177 21.6033 28.5177 21.4459 28.3603L18.8787 25.8536C18.5639 25.5509 18.5639 25.0544 18.8787 24.7517L19.7022 23.9403ZM47.6143 29.1231L49.9029 31.3513C50.2178 31.654 50.2178 32.1505 49.9029 32.4532L39.5979 42.5161C39.283 42.8188 38.7744 42.8188 38.4717 42.5161L31.1576 35.3716C31.085 35.2989 30.9518 35.2989 30.8791 35.3716L23.565 42.5161C23.2502 42.8188 22.7416 42.8188 22.4389 42.5161L12.0975 32.4532C11.7826 32.1505 11.7826 31.654 12.0975 31.3513L14.3861 29.1231C14.701 28.8204 15.2096 28.8204 15.5123 29.1231L22.8264 36.2677C22.899 36.3403 23.0322 36.3403 23.1049 36.2677L30.4189 29.1231C30.7338 28.8204 31.2424 28.8204 31.5451 29.1231L38.8592 36.2677C38.9318 36.3403 39.065 36.3403 39.1377 36.2677L46.4518 29.1231C46.7908 28.8204 47.2994 28.8204 47.6143 29.1231Z" fill="white"/>
<defs>
<linearGradient id="paint0_linear_401_71" x1="31" y1="62" x2="31" y2="0" gradientUnits="userSpaceOnUse">
<stop stop-color="#00D1FF"/>
<stop offset="0.5" stop-color="#C059FF"/>
<stop offset="1" stop-color="#FF9900"/>
</linearGradient>
</defs>
</svg>
